<svg xmlns="http://www.w3.org/2000/svg" viewBox="0 0 217.84 43.83"><defs><style>.cls-1{fill:#3e3a39;}.cls-2{fill:#a18973;}</style></defs><g id="圖層1"><path class="cls-1" d="M37.47,5.08V0L29.89,3.48l-.16-.1h0a13.41,13.41,0,0,0-4.5-1.83c-.4-.08-.79-.14-1.19-.19s-.81-.09-1.21-.1a13.23,13.23,0,0,0-2.27.08l-.85.1c-.34.06-.68.11-1,.2s-.91.24-1.36.38a9.88,9.88,0,0,0-1.57.67,10.57,10.57,0,0,0-3.25,2.68,7.81,7.81,0,0,0-1.16,1.87c-.15.37-.29.75-.41,1.13a5.58,5.58,0,0,0-.16.68c-.05.31-.11.62-.13.94a8,8,0,0,0,.09,1.76A12,12,0,0,0,11,12.94a9.05,9.05,0,0,0,.4,1.14,8.39,8.39,0,0,0,1.44,2.19,9.56,9.56,0,0,0,1.48,1.36c.43.3.87.61,1.33.87s1.07.53,1.61.77a6.18,6.18,0,0,0,.72.26c.26.08.53.15.79.21s.49.13.74.18l.71.11c.32,0,.65.09,1,.12a6.3,6.3,0,0,0,.75.05l.86,0,1.37-.1c.16,0,.32,0,.47-.06l1.13-.24a11.06,11.06,0,0,0,1.13-.3c.54-.19,1.07-.4,1.58-.63a10,10,0,0,0,2.35-1.49A8.44,8.44,0,0,0,32,16.13a7.64,7.64,0,0,0,1.06-1.75,11.9,11.9,0,0,0,.44-1.18,6.74,6.74,0,0,0,.16-.78,6.67,6.67,0,0,0,.13-.88,7.72,7.72,0,0,0-.08-2c-.07-.28-.13-.56-.2-.83a7.71,7.71,0,0,0-.48-1.32A8.69,8.69,0,0,0,31.45,5h0l-.23-.25ZM27.13,14c-.06.35-.14.69-.23,1s-.21.82-.35,1.22a6,6,0,0,1-1.15,2,3.68,3.68,0,0,1-1.36,1,4.66,4.66,0,0,1-2,.26,3.42,3.42,0,0,1-1.32-.36,4.87,4.87,0,0,1-2.07-2.05,7.45,7.45,0,0,1-.62-1.45c-.11-.35-.23-.7-.33-1.06s-.11-.5-.16-.75L17.4,13c0-.12,0-.24,0-.37a5.61,5.61,0,0,1-.06-.59c-.05-.63-.08-1.25-.09-1.87,0-.37,0-.74,0-1.11s.05-.65.09-1,.09-.62.15-.93.14-.68.23-1,.15-.63.25-.94a5.5,5.5,0,0,1,.82-1.62A3.67,3.67,0,0,1,20,2.4a3,3,0,0,1,1-.37,5,5,0,0,1,.76-.1,4.75,4.75,0,0,1,2.09.31,4.52,4.52,0,0,1,2.14,2.09,6.91,6.91,0,0,1,.54,1.32c.11.39.23.78.33,1.17s.18.72.25,1.09.14.79.19,1.19A15.24,15.24,0,0,1,27.13,14Z"/><path class="cls-1" d="M9,9.68c0,.17,0,.29,0,.41a.2.2,0,0,0,0,.07c0,.26,0,.52-.07.78a34.07,34.07,0,0,0-.08,4.74c0,.5,0,1,0,1.49l.06,1.59c0,.29,0,.58.05.86a2.36,2.36,0,0,0,.83,1.71,3.39,3.39,0,0,0,1,.54,3.51,3.51,0,0,0,1.07.21c.3,0,.6,0,.9,0,2.74.09,5.49,0,8.23.15.36,0,.72.05,1.08.1s.83.11,1.23.19.81.21,1.21.33a8.19,8.19,0,0,1,1.91.79,14.56,14.56,0,0,1,1.24.8,6.93,6.93,0,0,1,1.22,1.14,6.45,6.45,0,0,1,1.22,2c.13.35.24.7.34,1.06a5.94,5.94,0,0,1,.2,1.73,5.77,5.77,0,0,1,0,.72,8.51,8.51,0,0,1-.13.86q-.06.31-.15.63a5.75,5.75,0,0,1-.21.67c-.19.46-.39.92-.62,1.37a8.85,8.85,0,0,1-1.28,1.87,9.2,9.2,0,0,1-1.32,1.25,9.6,9.6,0,0,1-2,1.24c-.44.2-.89.39-1.34.57s-.65.21-1,.31l-1,.28-.77.16-.91.18-.67.11-1,.13a4.78,4.78,0,0,1-.53.06l-2.07,0c-.27,0-.55,0-.82,0s-.73-.05-1.09-.09-.92-.12-1.37-.2-.74-.14-1.1-.23-.91-.22-1.35-.34a15.86,15.86,0,0,1-2.31-.82,11.13,11.13,0,0,1-2.69-1.62,5.85,5.85,0,0,1-1.42-1.71A5.17,5.17,0,0,1,3,34.62a4.55,4.55,0,0,1-.2-1.09c0-.35,0-.7,0-1.05a6.44,6.44,0,0,1,.13-.88,5.19,5.19,0,0,1,.92-2,6.14,6.14,0,0,1,1.6-1.49c.37-.22.74-.43,1.12-.62s1-.53,1.58-.76,1-.38,1.46-.57h0l.1-.08a.28.28,0,0,0-.13,0L8.5,25.83a6.15,6.15,0,0,1-1.77-.69,4.54,4.54,0,0,1-1.95-2.09,3.25,3.25,0,0,1-.31-1.48c0-.52,0-1,0-1.57,0-.8,0-1.61,0-2.42,0-.56,0-1.13,0-1.7a1.83,1.83,0,0,0-.12-.69,1.17,1.17,0,0,0-.64-.58A14.71,14.71,0,0,0,2,14L.68,13.5l-.62-.21-.06,0s0,0,.05,0l1.7-.6L3,12.13A57.36,57.36,0,0,0,8.72,9.8ZM16.59,25.8c-.77,0-1.54.06-2.29.12a4.35,4.35,0,0,0-.52.06q-.55.07-1.11.18a6.85,6.85,0,0,0-.76.16A4.79,4.79,0,0,0,9.25,28.2a5.17,5.17,0,0,0-.53,1.05c-.08.23-.14.47-.2.71a4.31,4.31,0,0,0-.11.49c0,.3-.11.6-.13.9a7.82,7.82,0,0,0,.14,2.21,5.43,5.43,0,0,0,.16.67c.13.36.26.72.42,1.07A7.62,7.62,0,0,0,11.1,38,7.91,7.91,0,0,0,13,39.19a8.78,8.78,0,0,0,1.85.63,11.38,11.38,0,0,0,1.3.22A8.31,8.31,0,0,0,18.28,40c.34-.06.68-.11,1-.2a12.57,12.57,0,0,0,1.23-.39,6.22,6.22,0,0,0,1.77-1.09,6,6,0,0,0,1.46-1.79,8.18,8.18,0,0,0,.5-1.09,7.13,7.13,0,0,0,.26-1,5.4,5.4,0,0,0,.14-1c0-.5,0-1,0-1.49a5,5,0,0,0-.1-.76c-.07-.36-.15-.73-.24-1.09a4.7,4.7,0,0,0-.51-1.22,5.15,5.15,0,0,0-2.24-2.07c-.41-.2-.84-.36-1.27-.52a7.4,7.4,0,0,0-.81-.21A13,13,0,0,0,16.59,25.8Z"/><path class="cls-2" d="M67.19,35.77c-9.08,0-14.93-6.15-14.93-14.32S58.15,6.82,68.14,6.82a31.84,31.84,0,0,1,9.58,1.64l.8,6.87-.57.16C74.15,10.2,71.56,8,67.69,8c-6.61,0-9.39,5.74-9.39,13.41s2.59,13.11,8.93,13.11c3.76,0,6.54-1.83,6.61-5.55a10.22,10.22,0,0,0-1.93-6.46v-.07h8.43v.07a14.25,14.25,0,0,0-1.56,7.33v1.75A17.71,17.71,0,0,1,67.19,35.77Z"/><path class="cls-2" d="M83.16,25.74a10.38,10.38,0,0,1,20.74,0,10.38,10.38,0,0,1-20.74,0Zm15.38,0c0-4.9-1.67-8.89-5.05-8.89s-5,4-5,8.89,1.68,8.89,5.06,8.89S98.54,30.68,98.54,25.74Z"/><path class="cls-2" d="M118.19,35.2H106.83v-.07a14.53,14.53,0,0,0,1.59-7.49V15a14.4,14.4,0,0,0-1.59-7.48V7.39c3.87,0,9-.11,11.17-.11,7.9,0,9.73,3.27,9.73,6.46,0,2.92-1.52,5.66-5.93,6.84,5.32.79,7.26,3.72,7.26,7C129.06,32,125.9,35.2,118.19,35.2Zm-.8-15.08c3.72,0,5-3.15,5-6,0-3.31-1.75-5.59-5.59-5.59a12.12,12.12,0,0,0-2.88.31V20.12Zm5.85,7.52c0-3.61-1.59-6.3-5.58-6.3H113.9V33.68a13.22,13.22,0,0,0,3,.35C121.23,34,123.24,31.41,123.24,27.64Z"/><path class="cls-2" d="M132,35.13a20.23,20.23,0,0,0,1-7.34V23.5a7.84,7.84,0,0,0-2-5.77v-.08l6.72-2.13v4.79h.08c1.63-2,3.72-4.86,6.8-4.6l-.45,5.74h-.31A7.55,7.55,0,0,0,140.12,20a3.37,3.37,0,0,0-2.25,1.52v6.2a20.53,20.53,0,0,0,.92,7.37v.07H132Z"/><path class="cls-2" d="M147.37,35.13a24.56,24.56,0,0,0,.95-7.34V23.62a7.93,7.93,0,0,0-1.93-5.74v-.23l6.91-2.13V27.76a20.93,20.93,0,0,0,.91,7.37v.07h-6.84Zm.27-25.38a2.84,2.84,0,0,1,2.81-2.89,2.92,2.92,0,0,1,2.93,2.89,2.88,2.88,0,0,1-2.93,2.81A2.8,2.8,0,0,1,147.64,9.75Z"/><path class="cls-2" d="M171.24,16.28V13.05c0-2.81-.69-4.4-1.94-5.73V7.24L176.21,5V26.77c0,5,.61,6,2,7.37v.08l-6.8,1.48V31.82h-.08a7.55,7.55,0,0,1-6.65,4c-4.67,0-7.56-3.83-7.56-9.15,0-5.85,3.61-10.91,10.41-10.91A11.89,11.89,0,0,1,171.24,16.28Zm-4.11,16.45a5.16,5.16,0,0,0,4.11-2v-9.8c-.54-3-2.17-4.1-4-4.1-3.12,0-4.94,3.3-4.94,8.32C162.35,30,164,32.73,167.13,32.73Z"/><path class="cls-2" d="M185.94,28.44a2,2,0,0,0-1.4,1.79c0,1.21,1.21,1.67,3.72,1.74l4,.16c4.48.19,7.56,1.82,7.49,5.2-.08,3.76-4,6.5-10.91,6.5-5.36,0-8.93-1.6-8.93-4.37,0-1.86,1.52-3.08,3.27-3.61a3.48,3.48,0,0,1-2.09-3.27c0-2.54,2-3.95,3.88-4.56a6.39,6.39,0,0,1-3.61-5.62c0-3.8,3.34-6.69,7.79-6.69a8.5,8.5,0,0,1,5.16,1.64l5.51-3,.08,0v4.1h-.15l-4.56-.26a5.63,5.63,0,0,1,1.9,4.14c0,3.65-3.42,6.61-7.91,6.61A8.91,8.91,0,0,1,185.94,28.44Zm4.22,13.87c4.14,0,6.31-1.14,6.31-3s-1.9-2.24-5-2.36l-4.1-.19a12.23,12.23,0,0,1-3.23-.49,3,3,0,0,0-.88,2.24C183.28,41.13,186,42.31,190.16,42.31Zm2.09-19.91c0-3.34-.87-5.58-3.11-5.58s-3,2.24-3,5.58.88,5.47,3,5.47S192.25,25.67,192.25,22.4Z"/><path class="cls-2" d="M217.44,29.81l.38.3a8.09,8.09,0,0,1-8,5.66c-5.47,0-9-4.06-9-9.69,0-6.26,4.37-10.37,9.27-10.37a7.78,7.78,0,0,1,7.82,8.36H205.74c.08,5.51,2.81,7.83,6.61,7.83A6.58,6.58,0,0,0,217.44,29.81Zm-11.66-6.88,7.14-.15v-.91c0-3.5-1.06-5.05-3-5.05C207.49,16.82,206,19.51,205.78,22.93Z"/></g></svg>