<svg id="圖層3" xmlns="http://www.w3.org/2000/svg" viewBox="0 0 244.43 234.15"><defs><style>.cls-1{fill:#3e3a39;}</style></defs><path class="cls-1" d="M189.53,18V0l-26.9,12.37-.56-.37h0a45.47,45.47,0,0,0-9.43-4.66,50.71,50.71,0,0,0-6.54-1.83c-1.39-.3-2.81-.52-4.23-.69s-2.86-.31-4.29-.34a48.13,48.13,0,0,0-8.05.27c-1,.14-2,.21-3,.37-1.2.19-2.4.39-3.57.69-1.63.41-3.25.88-4.85,1.38a33.09,33.09,0,0,0-5.55,2.37A37.63,37.63,0,0,0,101,19.05a28,28,0,0,0-4.12,6.65c-.55,1.32-1,2.68-1.48,4a17.87,17.87,0,0,0-.54,2.41,26.14,26.14,0,0,0-.17,9.58c.27,1.41.5,2.83.89,4.2A27.7,27.7,0,0,0,97,50a29.37,29.37,0,0,0,5.1,7.76,33.44,33.44,0,0,0,5.26,4.83,50.56,50.56,0,0,0,4.72,3.11c1.84,1,3.78,1.87,5.71,2.74a21.82,21.82,0,0,0,2.58.9c.92.29,1.86.53,2.8.77s1.74.44,2.62.61,1.67.27,2.5.39c1.16.16,2.32.34,3.49.46.88.09,1.77.15,2.66.16s2,0,3.05-.1c1.63-.1,3.26-.24,4.89-.37a15.57,15.57,0,0,0,1.67-.22c1.33-.25,2.67-.51,4-.82a39.93,39.93,0,0,0,4-1.09c1.9-.67,3.78-1.4,5.61-2.22A35.28,35.28,0,0,0,166,61.6a30.43,30.43,0,0,0,4.17-4.32A27.55,27.55,0,0,0,174,51.07c.59-1.37,1.09-2.79,1.54-4.21a21.32,21.32,0,0,0,.58-2.75,24.11,24.11,0,0,0,.46-3.13,26.86,26.86,0,0,0-.3-7c-.22-1-.43-2-.68-2.94a28.88,28.88,0,0,0-1.73-4.68,30.88,30.88,0,0,0-5.66-8.74h0l-.81-.89Zm-36.7,31.54c-.23,1.23-.5,2.46-.82,3.67-.37,1.44-.75,2.9-1.25,4.31a21.21,21.21,0,0,1-4.08,7.22,13.26,13.26,0,0,1-4.83,3.49,16.73,16.73,0,0,1-7,.9,11.38,11.38,0,0,1-4.67-1.27,17.3,17.3,0,0,1-7.36-7.26,27.6,27.6,0,0,1-2.22-5.15c-.4-1.25-.81-2.5-1.15-3.77-.25-.88-.39-1.78-.58-2.67s-.43-2-.64-3c-.08-.44-.14-.88-.19-1.32-.08-.7-.15-1.39-.2-2.1-.17-2.23-.3-4.44-.33-6.66,0-1.3,0-2.61,0-3.94.05-1.15.18-2.31.32-3.46s.3-2.21.51-3.3.53-2.42.82-3.61.56-2.26.91-3.36a20.1,20.1,0,0,1,2.89-5.76,13.5,13.5,0,0,1,4.37-4,10.91,10.91,0,0,1,3.44-1.32,20.14,20.14,0,0,1,2.67-.36A16.78,16.78,0,0,1,140.94,8a16,16,0,0,1,7.61,7.41,23.92,23.92,0,0,1,1.91,4.69c.41,1.38.84,2.76,1.2,4.16s.62,2.57.87,3.86.5,2.81.69,4.22A54.38,54.38,0,0,1,152.83,49.57Z"/><path class="cls-1" d="M88.5,34.38c-.06.58-.1,1-.14,1.46,0,.08,0,.17,0,.25-.07.92-.11,1.84-.22,2.75-.67,5.58-.41,11.24-.29,16.84q.06,2.66.15,5.31c.06,1.88.13,3.76.2,5.64,0,1,.06,2,.16,3.05a8.39,8.39,0,0,0,3,6,11.44,11.44,0,0,0,3.57,1.93,11.83,11.83,0,0,0,3.82.74c1.06,0,2.12.12,3.19.15,9.73.32,19.5,0,29.22.53,1.28.07,2.57.18,3.85.35,1.46.18,2.92.39,4.36.69s2.87.74,4.29,1.15a30.31,30.31,0,0,1,6.79,2.81c1.51.86,3,1.84,4.39,2.83A25,25,0,0,1,159.12,91a23.24,23.24,0,0,1,4.32,7c.46,1.22.84,2.48,1.2,3.74a20.69,20.69,0,0,1,.72,6.17c0,.84,0,1.7-.06,2.54-.1,1-.29,2-.48,3-.14.75-.32,1.5-.53,2.24a20,20,0,0,1-.74,2.39c-.69,1.64-1.4,3.28-2.2,4.88A33.85,33.85,0,0,1,152.11,134a35.05,35.05,0,0,1-7.21,4.42c-1.56.7-3.14,1.38-4.75,2-1.14.44-2.32.77-3.49,1.11s-2.38.68-3.58,1c-.9.22-1.82.39-2.73.57-1.08.22-2.15.45-3.23.64-.79.15-1.58.27-2.38.38l-3.7.49a17.25,17.25,0,0,1-1.89.18c-2.44.07-4.89.14-7.33.16-1,0-2-.09-2.93-.17-1.29-.1-2.58-.19-3.86-.34-1.63-.2-3.26-.42-4.89-.69-1.3-.22-2.6-.51-3.9-.81q-2.4-.57-4.79-1.21a57.73,57.73,0,0,1-8.18-2.93,39.59,39.59,0,0,1-9.57-5.75,20.94,20.94,0,0,1-5-6.07,18.88,18.88,0,0,1-1.67-4,15.9,15.9,0,0,1-.7-3.86c0-1.25-.12-2.5-.06-3.74a19.53,19.53,0,0,1,.46-3.13,18.06,18.06,0,0,1,3.25-7.11,21.31,21.31,0,0,1,5.7-5.3c1.29-.8,2.63-1.53,4-2.22,1.85-.94,3.71-1.86,5.61-2.69,1.69-.74,3.45-1.35,5.17-2,0,0,.09,0,.12-.05l.36-.29a3.53,3.53,0,0,0-.46-.15c-1.25-.22-2.51-.41-3.75-.67a21.71,21.71,0,0,1-6.3-2.45,16.11,16.11,0,0,1-6.91-7.41,11.54,11.54,0,0,1-1.11-5.25c.07-1.85,0-3.71,0-5.57,0-2.86-.11-5.73-.14-8.59,0-2,0-4,0-6a6.36,6.36,0,0,0-.42-2.47,4.3,4.3,0,0,0-2.28-2.06,52.17,52.17,0,0,0-5.91-2.27L58.9,47.93c-.73-.26-1.47-.49-2.21-.74-.08,0-.14-.12-.21-.18a.84.84,0,0,1,.18-.15l6-2.12c1.53-.54,3-1.11,4.58-1.65a209.46,209.46,0,0,0,20.18-8.28C87.75,34.67,88.05,34.56,88.5,34.38Zm26.88,57.23c-2.72,0-5.44.2-8.13.43-.62,0-1.23.11-1.84.2-1.32.2-2.63.41-3.94.64a26.59,26.59,0,0,0-2.68.58,17,17,0,0,0-9.46,6.66,17.67,17.67,0,0,0-1.87,3.74c-.29.83-.51,1.68-.73,2.53-.15.58-.27,1.16-.37,1.75a26.48,26.48,0,0,0-.46,3.18,27.54,27.54,0,0,0,.47,7.84c.2.79.31,1.62.57,2.39.45,1.29,1,2.57,1.52,3.81a27.07,27.07,0,0,0,7.43,9.73,27.94,27.94,0,0,0,6.62,4.07,31.23,31.23,0,0,0,6.57,2.23,33.24,33.24,0,0,0,4.6.78,29.74,29.74,0,0,0,7.71-.26c1.2-.24,2.43-.39,3.61-.71,1.46-.4,2.92-.87,4.34-1.41a23,23,0,0,0,11.49-10.23,30.75,30.75,0,0,0,1.78-3.87,24.1,24.1,0,0,0,.92-3.58,21,21,0,0,0,.47-3.43c0-1.77-.05-3.54-.13-5.31a20.1,20.1,0,0,0-.34-2.67c-.25-1.31-.56-2.61-.87-3.9a16.28,16.28,0,0,0-1.81-4.32,18.28,18.28,0,0,0-7.93-7.35,45.92,45.92,0,0,0-4.54-1.85,21,21,0,0,0-2.86-.72A46,46,0,0,0,115.38,91.61Z"/><path class="cls-1" d="M22,222.26c-13.4,0-22-9.09-22-21.15s8.69-21.6,23.45-21.6a47,47,0,0,1,14.13,2.42l1.18,10.15-.84.22c-5.61-7.79-9.43-11-15.15-11-9.76,0-13.85,8.47-13.85,19.8s3.81,19.35,13.18,19.35c5.55,0,9.65-2.69,9.76-8.19.06-4.15-.84-6.34-2.86-9.53v-.12H41.45v.12c-1.79,3.7-2.3,6.11-2.3,10.82v2.58A26.16,26.16,0,0,1,22,222.26Z"/><path class="cls-1" d="M45.61,207.45c0-8.13,7.12-14.81,15.25-14.81s15.37,6.68,15.37,14.81-7.12,14.81-15.37,14.81S45.55,215.64,45.61,207.45Zm22.71,0c0-7.24-2.46-13.13-7.46-13.13s-7.4,5.89-7.4,13.13,2.47,13.12,7.46,13.12S68.32,214.74,68.32,207.45Z"/><path class="cls-1" d="M97.33,221.41H80.55v-.11c1.8-3.81,2.36-5.94,2.36-11.05V191.52c0-5.16-.56-7.24-2.36-11.05v-.11c5.73,0,13.3-.17,16.49-.17,11.67-.06,14.36,4.82,14.36,9.53,0,4.32-2.24,8.36-8.75,10.1,7.86,1.18,10.72,5.5,10.72,10.38C113.37,216.65,108.71,221.41,97.33,221.41Zm-1.18-22.26c5.49-.06,7.35-4.66,7.35-8.92,0-4.88-2.59-8.25-8.25-8.25a18,18,0,0,0-4.26.45v16.72Zm8.64,11.1c0-5.33-2.36-9.31-8.25-9.31H91v18.23a19.64,19.64,0,0,0,4.43.51C101.81,219.68,104.79,215.81,104.79,210.25Z"/><path class="cls-1" d="M117.63,221.3c1.07-3.08,1.46-5.72,1.46-10.82v-6.34c0-4.15-1.12-6.51-2.91-8.53v-.11l9.92-3.14v7.07h.12c2.41-3,5.49-7.18,10-6.79l-.68,8.47h-.45a11.15,11.15,0,0,0-5.44-2.08c-.95,0-2.24.85-3.31,2.25v9.14c0,5.05.28,7.8,1.35,10.88v.11h-10.1Z"/><path class="cls-1" d="M140.41,221.3a36.16,36.16,0,0,0,1.4-10.82v-6.17c0-4-1.06-6.45-2.86-8.47v-.34l10.21-3.14v18.06c0,5,.28,7.8,1.34,10.88v.11H140.41Zm.39-37.47a4.2,4.2,0,0,1,4.15-4.26,4.31,4.31,0,0,1,4.32,4.26A4.25,4.25,0,0,1,145,188,4.14,4.14,0,0,1,140.8,183.83Z"/><path class="cls-1" d="M175.64,193.48v-4.77c0-4.15-1-6.5-2.86-8.47v-.11l10.2-3.25V209c0,7.41.9,8.92,2.92,10.88V220l-10,2.18v-5.72h-.11a11.14,11.14,0,0,1-9.82,5.84c-6.9,0-11.16-5.67-11.16-13.52,0-8.64,5.33-16.1,15.37-16.1A17.62,17.62,0,0,1,175.64,193.48Zm-6.06,24.29a7.6,7.6,0,0,0,6.06-3V200.32c-.79-4.37-3.2-6-5.84-6-4.6,0-7.29,4.88-7.29,12.28C162.51,213.67,164.92,217.77,169.58,217.77Z"/><path class="cls-1" d="M197.35,211.43a2.93,2.93,0,0,0-2.08,2.64c0,1.79,1.79,2.47,5.5,2.58l5.89.22c6.62.28,11.16,2.69,11.05,7.69-.12,5.55-5.84,9.59-16.1,9.59-7.91,0-13.18-2.36-13.18-6.45,0-2.75,2.24-4.55,4.82-5.33a5.13,5.13,0,0,1-3.08-4.83c0-3.75,2.91-5.83,5.72-6.73a9.41,9.41,0,0,1-5.33-8.3c0-5.61,4.93-9.87,11.5-9.87a12.67,12.67,0,0,1,7.63,2.41l8.13-4.37.11,0v6.06h-.22L211,196.4a8.29,8.29,0,0,1,2.8,6.11c0,5.39-5.05,9.76-11.67,9.76A13,13,0,0,1,197.35,211.43Zm6.22,20.47c6.12,0,9.31-1.68,9.31-4.43,0-2.52-2.8-3.31-7.34-3.47l-6.06-.29a17.83,17.83,0,0,1-4.77-.72,4.51,4.51,0,0,0-1.29,3.3C193.42,230.16,197.46,231.9,203.57,231.9Zm3.09-29.39c0-4.93-1.29-8.24-4.6-8.24s-4.38,3.31-4.38,8.24,1.29,8.08,4.43,8.08S206.66,207.34,206.66,202.51Z"/><path class="cls-1" d="M243.85,213.45l.56.45a12,12,0,0,1-11.89,8.36c-8.08,0-13.35-6-13.35-14.31,0-9.25,6.45-15.31,13.68-15.31A11.49,11.49,0,0,1,244.41,205H226.57c.11,8.13,4.15,11.56,9.76,11.56A9.73,9.73,0,0,0,243.85,213.45ZM226.63,203.3l10.54-.23v-1.34c0-5.16-1.57-7.46-4.43-7.46C229.15,194.27,227,198.25,226.63,203.3Z"/></svg>